<svg xmlns="http://www.w3.org/2000/svg" width="14.533" height="15.613" viewBox="0 0 14.533 15.613">
  <g id="Group_26" data-name="Group 26" transform="translate(-13 -10.3)">
    <path id="Path_25" data-name="Path 25" d="M26.139,23.341V13.8h1.394V12.617H23.841v-.55A1.76,1.76,0,0,0,22.073,10.3H18.46a1.76,1.76,0,0,0-1.768,1.768v.55H13V13.8h1.394V23.36a2.548,2.548,0,0,0,2.553,2.553h6.638A2.59,2.59,0,0,0,26.139,23.341ZM17.871,12.068a.579.579,0,0,1,.589-.589h3.594a.579.579,0,0,1,.589.589v.55H17.871Zm-2.3,11.273V13.8h9.388V23.36a1.366,1.366,0,0,1-1.375,1.375H16.948A1.409,1.409,0,0,1,15.573,23.341Z" transform="translate(0)" fill="#1544e0"/>
    <rect id="Rectangle_59" data-name="Rectangle 59" width="1.178" height="7.051" transform="translate(19.677 15.662)" fill="#1544e0"/>
    <rect id="Rectangle_60" data-name="Rectangle 60" width="1.178" height="7.051" transform="translate(21.838 15.662)" fill="#1544e0"/>
    <rect id="Rectangle_61" data-name="Rectangle 61" width="1.178" height="7.051" transform="translate(17.517 15.662)" fill="#1544e0"/>
  </g>
</svg>
