<svg xmlns="http://www.w3.org/2000/svg" width="23" height="23" viewBox="0 0 23 23">
  <g id="Group_366" data-name="Group 366" transform="translate(-1222 -337)">
    <rect id="Rectangle_198" data-name="Rectangle 198" width="23" height="23" transform="translate(1222 337)" fill="none"/>
    <path id="delete_FILL0_wght400_GRAD0_opsz48" d="M162.167-824.555a1.239,1.239,0,0,1-.909-.378,1.239,1.239,0,0,1-.378-.909v-12.227H160v-1.287h4.033V-840H169.7v.644h4.033v1.287h-.879v12.227a1.235,1.235,0,0,1-.386.9,1.235,1.235,0,0,1-.9.386Zm9.4-13.514h-9.4v12.227h9.4Zm-7.122,10.382h1.287v-8.559H164.44Zm3.561,0h1.287v-8.559H168Zm-5.835-10.382v0Z" transform="translate(1066.48 1180.539)"/>
  </g>
</svg>
