<svg xmlns="http://www.w3.org/2000/svg" width="23" height="23" viewBox="0 0 23 23">
  <g id="Group_365" data-name="Group 365" transform="translate(-1222 -302)">
    <rect id="Rectangle_197" data-name="Rectangle 197" width="23" height="23" transform="translate(1222 302)" fill="none"/>
    <path id="edit_note_FILL0_wght400_GRAD0_opsz48" d="M131.389-701.018v-2.246l6.834-6.834,2.246,2.246-6.834,6.834ZM120-707.662v-1.9h9.491v1.9Zm21.829-1.55-2.246-2.246.917-.917a.9.9,0,0,1,.664-.253.9.9,0,0,1,.664.253l.917.917a.9.9,0,0,1,.253.664.9.9,0,0,1-.253.664ZM120-712.882v-1.9h14.869v1.9Zm0-5.22V-720h14.869v1.9Z" transform="translate(1102 1024.008)"/>
  </g>
</svg>
