<svg xmlns="http://www.w3.org/2000/svg" width="15.784" height="15.784" viewBox="0 0 15.784 15.784">
  <g id="Group_27" data-name="Group 27" transform="translate(-28 -28)">
    <g id="Group_27-2" data-name="Group 27" transform="translate(28 28)">
      <path id="Path_26" data-name="Path 26" d="M39.479,43.784a.717.717,0,1,1,0-1.435H41.99a.359.359,0,0,0,.359-.361V29.8a.36.36,0,0,0-.361-.361H29.8a.36.36,0,0,0-.361.361V41.988a.361.361,0,0,0,.359.361H32.3a.717.717,0,1,1,0,1.435H29.794A1.8,1.8,0,0,1,28,41.988V29.8A1.8,1.8,0,0,1,29.8,28H41.988a1.8,1.8,0,0,1,1.8,1.8V41.988a1.794,1.794,0,0,1-1.794,1.8ZM36.508,32.732l4.183,4.237a.717.717,0,1,1-1.012,1.015l-2.82-2.828c-.138-.139-.251-.091-.251.107v7.8a.716.716,0,1,1-1.432,0v-7.8c0-.2-.113-.246-.251-.107L32.1,37.983a.717.717,0,1,1-1.012-1.015l4.156-4.232A.881.881,0,0,1,36.508,32.732Z" transform="translate(-28 -28)" fill="#1544e0" fill-rule="evenodd"/>
    </g>
  </g>
</svg>
