<svg xmlns="http://www.w3.org/2000/svg" width="40" height="40" viewBox="0 0 40 40">
  <g id="Group_610" data-name="Group 610" transform="translate(-20)">
    <rect id="Rectangle_168" data-name="Rectangle 168" width="40" height="40" transform="translate(20)" fill="none"/>
    <path id="space_dashboard_FILL0_wght400_GRAD0_opsz40" d="M121.683-821.824a1.617,1.617,0,0,1-1.182-.5,1.617,1.617,0,0,1-.5-1.182v-14.81a1.617,1.617,0,0,1,.5-1.182,1.617,1.617,0,0,1,1.182-.5h14.81a1.617,1.617,0,0,1,1.182.5,1.617,1.617,0,0,1,.5,1.182v14.81a1.617,1.617,0,0,1-.5,1.182,1.617,1.617,0,0,1-1.182.5Zm0-1.683h6.563v-14.81h-6.563Zm8.246,0h6.564v-7.422h-6.564Zm0-9.1h6.564v-5.705h-6.564Z" transform="translate(-89.088 850.912)" fill="#fff"/>
  </g>
</svg>
