<svg xmlns="http://www.w3.org/2000/svg" width="40" height="40" viewBox="0 0 40 40">
  <g id="Group_607" data-name="Group 607" transform="translate(-20)">
    <rect id="Rectangle_168" data-name="Rectangle 168" width="40" height="40" transform="translate(20)" fill="#060f2f"/>
    <path id="manage_accounts_FILL0_wght400_GRAD0_opsz40" d="M88.263-782.081a3.84,3.84,0,0,1-2.832-1.128,3.84,3.84,0,0,1-1.128-2.832,3.84,3.84,0,0,1,1.128-2.832A3.84,3.84,0,0,1,88.263-790a3.84,3.84,0,0,1,2.832,1.128,3.84,3.84,0,0,1,1.128,2.832,3.84,3.84,0,0,1-1.128,2.832A3.84,3.84,0,0,1,88.263-782.081ZM80-773.8v-2.582A3.041,3.041,0,0,1,80.448-778a2.889,2.889,0,0,1,1.274-1.119,18.282,18.282,0,0,1,3.288-1.171,13.568,13.568,0,0,1,3.254-.4h.318a2.438,2.438,0,0,1,.3.017,5.013,5.013,0,0,0-.271.8,7.484,7.484,0,0,0-.159.908h-.189a12.231,12.231,0,0,0-3.051.37,14.233,14.233,0,0,0-2.767,1.024,1.262,1.262,0,0,0-.538.508,1.363,1.363,0,0,0-.185.68v.861h6.8a5.513,5.513,0,0,0,.344.917,5.285,5.285,0,0,0,.482.8Zm14.925,1.1-.275-1.653a4.8,4.8,0,0,1-.788-.34,3.427,3.427,0,0,1-.693-.486l-1.446.362-.775-1.308,1.2-1.1a3.6,3.6,0,0,1-.052-.654,3.6,3.6,0,0,1,.052-.654l-1.2-1.1.775-1.308,1.446.362a3.432,3.432,0,0,1,.693-.486,4.8,4.8,0,0,1,.788-.34l.275-1.653h1.618l.275,1.653a4.582,4.582,0,0,1,.788.344,3.372,3.372,0,0,1,.693.5l1.446-.379.775,1.326-1.205,1.1a3.372,3.372,0,0,1,.052.646,3.371,3.371,0,0,1-.052.646l1.205,1.1-.775,1.308-1.446-.362a3.427,3.427,0,0,1-.693.486,4.8,4.8,0,0,1-.788.34l-.275,1.653Zm.809-3.116a2.011,2.011,0,0,0,1.485-.581,2.011,2.011,0,0,0,.581-1.485,2.011,2.011,0,0,0-.581-1.485,2.011,2.011,0,0,0-1.485-.581,2.011,2.011,0,0,0-1.485.581,2.011,2.011,0,0,0-.581,1.485,2.011,2.011,0,0,0,.581,1.485A2.011,2.011,0,0,0,95.734-775.815ZM88.263-783.8a2.167,2.167,0,0,0,1.6-.641,2.167,2.167,0,0,0,.641-1.6,2.167,2.167,0,0,0-.641-1.6,2.167,2.167,0,0,0-1.6-.641,2.167,2.167,0,0,0-1.6.641,2.167,2.167,0,0,0-.641,1.6,2.167,2.167,0,0,0,.641,1.6A2.167,2.167,0,0,0,88.263-783.8ZM88.263-786.041ZM88.521-775.523Z" transform="translate(-50 801)" fill="#fff"/>
  </g>
</svg>
