<svg xmlns="http://www.w3.org/2000/svg" width="40" height="40" viewBox="0 0 40 40">
  <g id="Group_615" data-name="Group 615" transform="translate(-20)">
    <rect id="Rectangle_168" data-name="Rectangle 168" width="40" height="40" transform="translate(20)" fill="none"/>
    <path id="person_FILL0_wght400_GRAD0_opsz48" d="M169.088-772.48a4.152,4.152,0,0,1-3.067-1.193,4.152,4.152,0,0,1-1.193-3.067,4.152,4.152,0,0,1,1.193-3.067A4.152,4.152,0,0,1,169.088-781a4.152,4.152,0,0,1,3.067,1.193,4.152,4.152,0,0,1,1.193,3.067,4.152,4.152,0,0,1-1.193,3.067A4.152,4.152,0,0,1,169.088-772.48ZM160-763.364v-2.67a3.125,3.125,0,0,1,.54-1.846,3.465,3.465,0,0,1,1.392-1.164,21.346,21.346,0,0,1,3.649-1.278,14.752,14.752,0,0,1,3.507-.426,14.132,14.132,0,0,1,3.493.44,23.783,23.783,0,0,1,3.633,1.269,3.43,3.43,0,0,1,1.425,1.163,3.118,3.118,0,0,1,.536,1.841v2.67Zm1.7-1.7h14.768v-.966a1.556,1.556,0,0,0-.27-.866,1.71,1.71,0,0,0-.667-.611,15.084,15.084,0,0,0-3.323-1.207,14.694,14.694,0,0,0-3.124-.327,15.094,15.094,0,0,0-3.152.327,14.428,14.428,0,0,0-3.323,1.207,1.613,1.613,0,0,0-.653.611,1.618,1.618,0,0,0-.256.866Zm7.384-9.116a2.483,2.483,0,0,0,1.832-.724,2.482,2.482,0,0,0,.724-1.832,2.483,2.483,0,0,0-.724-1.832,2.483,2.483,0,0,0-1.832-.724,2.483,2.483,0,0,0-1.832.724,2.483,2.483,0,0,0-.724,1.832,2.482,2.482,0,0,0,.724,1.832A2.483,2.483,0,0,0,169.088-774.184ZM169.088-776.74ZM169.088-765.068Z" transform="translate(-129 792)" fill="#fff"/>
  </g>
</svg>
