<svg xmlns="http://www.w3.org/2000/svg" width="40" height="40" viewBox="0 0 40 40">
  <g id="Group_616" data-name="Group 616" transform="translate(-20)">
    <rect id="Rectangle_168" data-name="Rectangle 168" width="40" height="40" transform="translate(20)" fill="none"/>
    <path id="home_storage_FILL0_wght400_GRAD0_opsz48" d="M122.02-821.824,120-833.941h18.176l-2.02,12.117Zm1.262-1.515h11.612l1.439-9.088h-14.49Zm3.787-5.049h4.039a.715.715,0,0,0,.543-.227.748.748,0,0,0,.215-.53.735.735,0,0,0-.215-.543.736.736,0,0,0-.543-.215h-4.039a.748.748,0,0,0-.53.215.714.714,0,0,0-.227.543.727.727,0,0,0,.227.53A.727.727,0,0,0,127.068-828.388Zm-4.039-7.068a.727.727,0,0,1-.53-.227.727.727,0,0,1-.227-.53.715.715,0,0,1,.227-.543.748.748,0,0,1,.53-.215h12.117a.736.736,0,0,1,.543.215.736.736,0,0,1,.215.543.748.748,0,0,1-.215.53.715.715,0,0,1-.543.227Zm2.02-3.029a.727.727,0,0,1-.53-.227.727.727,0,0,1-.227-.53.714.714,0,0,1,.227-.543.748.748,0,0,1,.53-.215h8.078a.736.736,0,0,1,.543.215.736.736,0,0,1,.215.543.748.748,0,0,1-.215.53.715.715,0,0,1-.543.227Zm-1.767,15.146h0Z" transform="translate(-89 851)" fill="#fff"/>
  </g>
</svg>
