<svg xmlns="http://www.w3.org/2000/svg" width="40" height="40" viewBox="0 0 40 40">
  <g id="Group_617" data-name="Group 617" transform="translate(-20)">
    <rect id="Rectangle_168" data-name="Rectangle 168" width="40" height="40" transform="translate(20)" fill="none"/>
    <path id="notifications_FILL0_wght400_GRAD0_opsz48" d="M160-860.688v-1.7h2.386v-8.69a6.856,6.856,0,0,1,1.406-4.246,6.058,6.058,0,0,1,3.706-2.343v-.824a1.4,1.4,0,0,1,.469-1.079,1.61,1.61,0,0,1,1.122-.426,1.61,1.61,0,0,1,1.122.426,1.4,1.4,0,0,1,.469,1.079v.824a6.117,6.117,0,0,1,3.72,2.343,6.811,6.811,0,0,1,1.42,4.246v8.69h2.357v1.7ZM169.088-869.066Zm0,11.786a2.2,2.2,0,0,1-1.59-.667,2.165,2.165,0,0,1-.682-1.6h4.544a2.188,2.188,0,0,1-.667,1.6A2.188,2.188,0,0,1,169.088-857.28Zm-5-5.112h10.025v-8.69a4.922,4.922,0,0,0-1.448-3.578,4.78,4.78,0,0,0-3.55-1.477,4.827,4.827,0,0,0-3.564,1.477,4.9,4.9,0,0,0-1.463,3.578Z" transform="translate(-129 889)" fill="#fff"/>
  </g>
</svg>
