<svg xmlns="http://www.w3.org/2000/svg" width="40" height="40" viewBox="0 0 40 40">
  <g id="Group_618" data-name="Group 618" transform="translate(-20)">
    <rect id="Rectangle_168" data-name="Rectangle 168" width="40" height="40" transform="translate(20)" fill="none"/>
    <path id="add_chart_FILL0_wght400_GRAD0_opsz48" d="M121.507-821.912a1.446,1.446,0,0,1-1.055-.452,1.446,1.446,0,0,1-.452-1.055v-15.073a1.446,1.446,0,0,1,.452-1.055,1.446,1.446,0,0,1,1.055-.452h9.923v1.507h-9.923v15.073h15.073v-9.923h1.507v9.923a1.446,1.446,0,0,1-.452,1.055,1.446,1.446,0,0,1-1.055.452Zm2.613-3.944h1.507v-6.909H124.12Zm4.17,0H129.8v-10.2H128.29Zm4.17,0h1.507v-3.718h-1.507Zm1.934-8.24v-2.186h-2.211v-1.507h2.211V-840H135.9v2.211h2.186v1.507H135.9v2.186ZM129.044-830.956Z" transform="translate(-89 851)" fill="#fff"/>
  </g>
</svg>
