<svg xmlns="http://www.w3.org/2000/svg" width="20.363" height="20.363" viewBox="0 0 20.363 20.363">
  <path id="settings_alert_FILL0_wght400_GRAD0_opsz48" d="M87.84-859.637l-.509-3.207a6.821,6.821,0,0,1-1.018-.484,7,7,0,0,1-.942-.636l-3,1.375L80-866.764l2.749-2.011a3.024,3.024,0,0,1-.064-.522q-.013-.293-.013-.522t.013-.522a3.024,3.024,0,0,1,.064-.522L80-872.873l2.367-4.175,3,1.375a7,7,0,0,1,.942-.636,5.269,5.269,0,0,1,1.018-.458L87.84-880h4.684l.509,3.207a8.264,8.264,0,0,1,1.031.471,4.377,4.377,0,0,1,.929.649l3-1.375,2.367,4.175-2.749,1.96a3.587,3.587,0,0,1,.064.547q.013.293.013.547t-.013.535a3.542,3.542,0,0,1-.064.534l2.749,1.986L98-862.589l-3-1.375a8.435,8.435,0,0,1-.929.649,4.433,4.433,0,0,1-1.031.471l-.509,3.207Zm1.222-1.527H91.3l.356-2.851a6.01,6.01,0,0,0,1.591-.636,6.529,6.529,0,0,0,1.362-1.044l2.7,1.171,1.018-1.833-2.393-1.756q.1-.433.165-.853a5.682,5.682,0,0,0,.064-.853,7.083,7.083,0,0,0-.051-.853,5.273,5.273,0,0,0-.178-.853l2.393-1.756-1.018-1.833-2.7,1.171a5.67,5.67,0,0,0-1.324-1.107,4.291,4.291,0,0,0-1.629-.573l-.356-2.851h-2.24l-.356,2.851a5.393,5.393,0,0,0-1.616.611,5.616,5.616,0,0,0-1.336,1.069l-2.7-1.171-1.018,1.833,2.393,1.756q-.1.433-.165.853a5.684,5.684,0,0,0-.064.853,5.681,5.681,0,0,0,.064.853q.064.42.165.853l-2.393,1.756,1.018,1.833,2.7-1.171a6.529,6.529,0,0,0,1.362,1.044,6.01,6.01,0,0,0,1.591.636Z" transform="translate(-80 880)" fill="#fff"/>
</svg>
