<svg xmlns="http://www.w3.org/2000/svg" width="40" height="40" viewBox="0 0 40 40">
  <g id="Group_620" data-name="Group 620" transform="translate(-20)">
    <rect id="Rectangle_168" data-name="Rectangle 168" width="40" height="40" transform="translate(20)" fill="none"/>
    <path id="logout_FILL0_wght400_GRAD0_opsz48" d="M121.7-819.637a1.628,1.628,0,0,1-1.188-.509,1.628,1.628,0,0,1-.509-1.188V-838.3a1.628,1.628,0,0,1,.509-1.188A1.628,1.628,0,0,1,121.7-840h8.23v1.7H121.7v16.969h8.23v1.7Zm13.745-5.232-1.216-1.216,2.885-2.885h-9.9v-1.7h9.842l-2.885-2.885,1.216-1.216,4.978,4.978Z" transform="translate(-90 850)" fill="#fff"/>
  </g>
</svg>
